<mxfile host="app.diagrams.net" modified="2024-03-06T08:17:20.159Z" agent="Mozilla/5.0 (Windows NT 10.0; Win64; x64) AppleWebKit/537.36 (KHTML, like Gecko) Chrome/122.0.0.0 Safari/537.36 Edg/122.0.0.0" version="24.0.2" etag="2PE8vpTSr7byaMVeoUX3" type="github">
  <diagram name="第 1 页" id="U4rbKuTtVrF6dD7WtkdG">
    <mxGraphModel>
      <root>
        <mxCell id="0" />
        <mxCell id="1" parent="0" />
      </root>
    </mxGraphModel>
  </diagram>
</mxfile>
